<?xml version="1.0" encoding="UTF-8"?>
<svg id="Layer_1" xmlns="http://www.w3.org/2000/svg" version="1.1" viewBox="0 0 160 82.6">
  <!-- Generator: Adobe Illustrator 30.3.0, SVG Export Plug-In . SVG Version: 2.1.3 Build 182)  -->
  <defs>
    <style>
      .st0 {
        fill: #fdfdfc;
      }

      .st1 {
        fill: #475641;
      }

      .st2 {
        fill: #c2ab8d;
      }
    </style>
  </defs>
  <g>
    <path class="st2" d="M117.73,50.31l-1.19-1.87c-.12-.19-.6-.12-.62.1l-.17,1.77c-.3.03-.54.05-.84,0l.02-4.96,2.51.13c.69.04,1.08.73,1.07,1.29,0,.66-.29,1.14-1.01,1.49l1.28,2.02c-.36.08-.66.06-1.06.04ZM117.19,47.65c.5-.3.55-1.09.14-1.41-.45-.36-1.07-.34-1.56-.23l.02,1.75c.44.06.96.15,1.39-.11Z"/>
    <path class="st2" d="M104.16,50.27c-.3.07-.83.15-1.06-.02l-1.21-1.76-1.24,1.78c-.3.08-.57.1-.96.03l1.72-2.49-1.57-2.38c.3-.06.76-.09.97.05l1.18,1.66,1.1-1.63c.16-.23.66-.18.84,0l-1.51,2.26,1.73,2.5Z"/>
    <path class="st2" d="M125.17,48.11l-1.93.02.05,1.54h2.29s-.03.65-.03.65h-3.16s.01-4.91.01-4.91h3.14c.02.27.03.47-.04.65h-2.25c-.05.49-.06.93.03,1.4l1.87.04v.62Z"/>
    <path class="st2" d="M110.02,48.46l-1.42.06v1.75c-.28.09-.6.08-.88,0v-4.87s1.95,0,1.95,0c.56,0,1.2.24,1.46.72s.25,1,.03,1.49c-.16.38-.54.7-1.14.85ZM109.96,47.76c.38-.23.51-.64.48-.96-.09-.75-.94-1-1.85-.79l.02,1.88c.45.04.96.11,1.35-.13Z"/>
    <path class="st2" d="M95.87,48.11l-1.9.03v1.57s2.32,0,2.32,0v.62s-3.19-.01-3.19-.01l.03-4.89h3.15s-.04.58-.04.58l-2.26.06c-.05.48-.05.93.04,1.4l1.87.04-.02.61Z"/>
    <path class="st2" d="M137.94,50.39c-.78.03-1.46-.12-1.96-.6-.03-.23.18-.59.42-.66.44.46.93.76,1.52.66.32-.05.59-.32.64-.56.06-.28-.08-.65-.38-.78l-1.18-.51c-.51-.22-.77-.61-.82-1.08s.09-1,.56-1.28c.78-.47,1.85-.41,2.52.22.09.2-.14.62-.31.65-.41-.42-.91-.66-1.43-.5-.31.1-.49.31-.5.54-.02.3.09.55.38.67l1.2.49c.64.26.93.91.8,1.55s-.67,1.13-1.47,1.16Z"/>
    <path class="st2" d="M131.76,50.22c-.87.34-1.96.22-2.6-.41-.08-.18.16-.56.35-.66.4.47.92.73,1.52.66.41-.05.66-.33.7-.7.04-.33-.2-.64-.57-.79l-1.22-.48c-.44-.17-.67-.65-.66-1.07.01-.43.17-.87.6-1.16.73-.49,1.82-.4,2.49.18.17.14-.22.67-.35.57-.47-.39-1.06-.65-1.63-.32-.31.18-.39.85-.06,1l1.36.62c.51.23.93.7.92,1.2,0,.54-.22,1.11-.84,1.35Z"/>
    <path class="st2" d="M153.17,48.02l-4.22.05-5.2.08c-.22,0-.22-.2-.2-.3.02-.14.14-.31.35-.31l3.81.04,5.31.18c.18-.11.32.1.15.25Z"/>
    <path class="st0" d="M117.19,47.65c-.43.26-.95.17-1.39.11l-.02-1.75c.49-.11,1.1-.13,1.56.23.41.32.35,1.11-.14,1.41Z"/>
    <path class="st0" d="M109.96,47.76c-.39.24-.91.18-1.35.13l-.02-1.88c.92-.21,1.77.04,1.85.79.04.32-.1.73-.48.96Z"/>
  </g>
  <g>
    <path class="st2" d="M61.45,69.89c-4.3,3.66-9.22,6.23-14.7,7.55-7.58,1.83-15.56,1.08-22.65-2.16-4.4-2.01-8.35-4.79-11.62-8.34C4.64,58.42,1.18,46.48,3.06,35.07c1.12-6.8,3.91-13.22,8.41-18.44,6.15-7.14,14.85-11.6,24.22-12.44,2.19-.2,4.14-.16,6.31.02,8.68.72,16.95,5.06,22.79,11.49,12.91,14.21,12.86,36.65,0,50.92l-1.46,1.55-1.89,1.71ZM67.12,62.43c4.99-7.28,7.27-16.16,6.43-24.94C71.52,16.28,52.09.82,30.98,5.7c-8.54,1.98-16.31,7.19-21.2,14.41-8.45,12.49-8.63,28.96-.39,41.6,5.84,8.96,15.58,14.95,26.32,15.84,12.5,1.04,24.4-4.9,31.41-15.12Z"/>
    <path class="st1" d="M100.92,40.88l-1.78-2.88c-.2-.22-.69-.16-1-.13v2.84c0,.44.4.55.76.81l-2.76-.04c.39-.24.76-.41.76-.89v-6.37c-.01-.48-.35-.6-.79-.89h3.74c.72-.01,1.44.24,1.92.76.54.59.63,1.4.33,2.14-.28.66-.93,1.12-1.84,1.31l1.87,2.84c.34.51.68.86,1.31,1.05-1.1.34-1.99.32-2.53-.55ZM100.29,37.01c.94-.74.89-2.39-.08-3.02-.62-.4-1.37-.27-2.08-.21v3.59c.68.09,1.5.15,2.15-.36Z"/>
    <path class="st1" d="M90.27,41.5l-3.54-.03c.54-.31.9-.79.7-1.39-.12-.37.01-.59.01-.94v-4.76c0-.5-.15-.78-.72-1,.73-.23,1.33-.07,2.02-.11,1.02-.06,1.99-.06,2.96.22,1.69.49,2.75,1.95,2.77,3.7.02,1.16-.26,2.25-1.11,3.07s-1.9,1.26-3.1,1.25ZM92.67,35.38c-.71-1.57-2.18-1.83-3.95-1.6l.03,7.2c.81.19,1.62.16,2.39-.11,1.93-.68,2.43-3.51,1.53-5.49Z"/>
    <path class="st1" d="M112.46,41.49c.45-.32.76-.49.76-1.04v-6.12c0-.49-.25-.72-.76-.95l2.16-.09c1.02-.04,2.06-.06,2.99.26,1.66.58,2.54,1.97,2.6,3.65.09,2.4-1.6,4.3-4.05,4.3h-3.7ZM118.41,35.36c-.58-1.16-1.69-1.77-3.03-1.62-.17-.08-.87-.06-.87.18v7.05c.88.23,1.82.18,2.64-.21,1.72-.82,2.14-3.57,1.26-5.39Z"/>
    <path class="st1" d="M130.66,37.44c0,2.38-1.93,4.31-4.31,4.31s-4.31-1.93-4.31-4.31,1.93-4.31,4.31-4.31,4.31,1.93,4.31,4.31ZM128.74,35.23c-.45-1-1.31-1.64-2.32-1.66s-1.91.49-2.38,1.44c-.79,1.6-.74,3.54.18,5.07.5.83,1.41,1.28,2.29,1.24,2.47-.12,3.31-3.64,2.22-6.09Z"/>
    <path class="st1" d="M139.45,41.43c0,.31-.56.21-.73,0l-5.04-6.34-.1,5.37c0,.54.34.75.82,1.05l-2.23-.03c.64-.27.91-.53.91-1.16v-5.61c.01-.66-.26-.99-.95-1.31l1.92-.03,4.85,6.13.04-4.93c0-.62-.21-.94-.89-1.19.82-.08,1.38-.13,2.21.02-.45.23-.73.32-.81.78v7.24Z"/>
    <path class="st1" d="M108.54,37.56l-1.79-.02.04,3.43c.55.23,1.14.07,1.68.12,1.08.1,1.76-.45,2.24-1.54.16.76-.11,1.32-.24,1.99l-5.73-.03c.49-.32.75-.52.75-1.06v-6.11c-.01-.5-.26-.68-.73-.98l5.48-.04c.08.62.22,1.15,0,1.84-.21-.85-.71-1.34-1.51-1.4l-1.96.05v3.15c.49.12.97.07,1.43.07.65.05.89-.34,1.14-1,.16.9.09,1.61.04,2.48-.25-.4-.3-.97-.84-.97Z"/>
    <path class="st1" d="M82.48,37.5c-.46.01-.96-.07-1.48.08l-.04,3.01c0,.16.06.31.16.4.15.13,1.96.21,2.73-.08.58-.22.73-.78,1.16-1.31.05.67-.15,1.21-.24,1.91l-5.71-.03c.43-.29.68-.5.68-.94v-6.3c0-.47-.28-.59-.71-.95h5.45c.06.59.24,1.14.07,1.83-.29-.81-.69-1.4-1.53-1.38l-2.03.05.04,3.04c0,.37.8.19,1.07.22.71.08,1.34-.11,1.55-1,.13.95.1,1.6.01,2.52-.26-.71-.47-1.08-1.17-1.06Z"/>
    <path class="st1" d="M145.38,37.53l-1.64.03v3.15c0,.22.18.4.41.4h1.68c.76,0,1.28-.48,1.6-1.16l.09-.2c.03-.06.24-.03.22.05l-.33,1.79-5.66-.06c.35-.3.72-.37.72-.82v-6.48c0-.45-.34-.54-.71-.83l5.4-.04c.05.68.27,1.16.08,1.84-.32-.87-.7-1.4-1.54-1.39h-1.96s0,3.27,0,3.27h1.54c.6,0,.8-.35,1.08-.98.13.88.13,1.63,0,2.49-.3-.53-.33-1.04-.97-1.03Z"/>
    <path class="st1" d="M152.85,41.63c-1.47.32-2.2-.22-3.29-.34l.02-2.08c.35.31.34.66.54,1,.62,1.06,2.08,1.54,3.05.66.76-.69.44-1.91-.4-2.38l-2-1.13c-.85-.48-1.21-1.31-1.08-2.29.2-1.5,1.79-2.16,3.48-1.78.35.08.61.31,1.07.26-.05.63.12,1.16-.1,1.89-.26-.78-.53-1.31-1.04-1.59-.66-.36-1.4-.34-1.98.14-.34.28-.45.72-.39,1.16.05.35.3.78.71,1.01l1.98,1.13c.91.52,1.38,1.36,1.25,2.4-.12.89-.74,1.7-1.82,1.93Z"/>
    <path class="st2" d="M87.17,48.18l-2.86-.08c-1.55-.04-3.02-.18-4.57-.07-.11,0-.25-.17-.25-.25l5.82-.19,3.79-.02c.15,0,.17.3.14.4-.09.33-1.22.24-2.07.22Z"/>
    <path class="st0" d="M67.12,62.43c-7.01,10.22-18.91,16.16-31.41,15.12-10.74-.9-20.48-6.88-26.32-15.84-8.24-12.64-8.06-29.11.39-41.6,4.89-7.22,12.65-12.43,21.2-14.41,21.11-4.88,40.54,10.58,42.57,31.78.84,8.78-1.44,17.67-6.43,24.94ZM58.16,13.26c4.89,3.68,8.54,8.55,10.91,14.11,1.63,3.83,2.31,7.73,2.97,11.88-.22-11.43-6.54-22.15-16.2-28.15-7.1-4.41-15.5-5.91-23.68-4.21-6.14,1.28-11.76,4.16-16.37,8.44-6.69,6.21-10.71,15.1-10.79,24.26.38-1.87.49-3.66.9-5.56,1.12-5.16,3.21-10,6.44-14.21,5.87-7.65,14.81-12.42,24.45-13.05,7.68-.5,15.19,1.82,21.37,6.48ZM36.25,18.52c-.54-.19-.92-.18-1.03-.55l-.29-1.06c-.14.47-.09.87-.37,1.17-.25.27-.68.28-1.08.4,1.1.31,1.23.46,1.45,1.55.24-1.1.37-1.26,1.32-1.51ZM29.36,21.29l1.93-.6c-.7-.22-1.74-.19-2.33-.77s-.46-1.72-.78-2.45c-.34.77-.19,1.84-.76,2.45s-1.71.54-2.42.77c.75.29,1.8.24,2.36.85.63.69.55,1.81.84,2.64.32-1.24.3-2.62,1.15-2.88ZM43.46,51.85c1.75.16,3.48,0,5.17-.31.72-.22,1.41-.33,2.05-.74,1.86-.36,3.5-1.2,5.11-2.16.64-.38,1.32-.62,1.84-1.2,1.19-.35,2.22-.97,3.16-1.78,1.79-.84,3.21-2.35,3.63-4.3.49-2.24-.23-4.5-1.98-5.95-.74-.61-1.67-.82-2.59-1.23l.87-1.22c.7-1.75.23-3.61-1.2-4.82-1.29-1.09-2.89-1.65-4.6-1.58-2.2-1.34-4.73-1.95-7.33-1.7-1.69-1.15-3.79-1.15-5.88-1.09-2.91.4-6.04,1.31-8.35,3.12-1.9.36-3.55,1.15-5.25,2.05l-2.33,1.55c-.82.54-1.16,1.38-1.68,2.13-.4.58-.92,1.01-1.22,1.69-.89,2-1.18,4.21-.56,6.35.77,2.69,2.8,4.22,5.5,4.79,1.38,1.02,2.95,1.49,4.56,2.02l1.57.99,2.96,1.23,1.87.5c1.46.85,2.92,1.35,4.68,1.65ZM22.11,28.74c.27-.42.15-.92.38-1.24.3-.41.81-.34,1.27-.54-.53-.19-.97-.19-1.25-.53-.26-.31-.16-.73-.4-1.19-.18.49-.13,1.03-.54,1.34l-1.17.4c.53.14,1.05.13,1.36.55.25.33.14.83.36,1.21ZM19.58,48.59c.09.08.15.14.32.21l.27.13s.09.08.11.14c.02.17.09.23.22.35,2.49,2.39,5.63,4.02,9.24,4.25-1.79-.7-3.47-1.44-4.83-2.82-1.54-1.57-2.41-3.55-2.78-5.71-.66-3.87-1.72-6.72-4.99-9.1-.96-.73-1.92-1.34-2.82-2.16-1.56-1.41-2.57-3.2-3.15-5.3-2.06,5.38-2.06,11.75,1.83,16.04,2.6.85,4.49,2.29,6.58,3.96ZM67.04,34.48c0-.41-.34-.75-.75-.75s-.75.33-.75.75.34.75.75.75.75-.33.75-.75ZM68.47,41.84c.39-.34.25-.9.02-1.21-.29-.4-.88-.47-1.25-.15-.42.36-.31.9-.05,1.23.31.39.88.47,1.28.13ZM13.89,50.56c.13.08.24.09.4-.04.36.63,2.44,1.51,3.58,1.89,2.31.76,4.68.95,7.18.82-1.27-.59-2.53-1.12-3.66-1.99s-2.1-1.78-3.16-2.71c-2.37-2.11-5.19-3.28-8.34-3.68-1.72-.22-3.24-.72-4.7-1.84.53,2.98,1.62,5.67,3.33,8.04,1.8,2.48,4.5,3.99,7.55,4.2,1.58.1,3.06-.02,4.62-.28,2.5-.42,4.9-.69,7.46-.83-.63-.12-1.28-.31-1.97-.3-4.25.08-7.14.04-11.09-1.94-.78-.18-1.73.16-2.5-.31.58-.04,1.18.1,1.86-.06-1.61-1.04-3.16-2.11-4.53-3.4,0-.02-.03-.03-.05-.03-.23-.09-.03-.32.1-.14l.09.08c1.22.92,2.51,1.74,3.82,2.53ZM63.77,47.85c1.36-.38,2.74-.45,4.04.07,1.43.57,2.35,1.88,2.31,3.36.27-.23.13-.53.15-.77.14-1.45-.44-2.74-1.38-3.64-3.26-3.12-8.83,1.01-12.25,3.25-1.77,1.16-3.49,2.26-5.46,3.02-.82.48-1.7.53-2.6.93,1.69-.06,3.22-.62,4.79-1.25,3.71-1.48,7.33-4.13,10.41-4.98ZM23.81,45.96c-.07-.03-.18.05-.07.14l.07-.14ZM41.08,55.03h2.5c-.67-.26-1.47-.15-2.51-.35-2.93-.58-5.66-1.84-8.16-3.58-1.81-1.25-3.6-2.28-5.63-3.12-1.23-.51-2.38-1.12-3.37-1.9l-.11.08c1.26,3.65,4.71,6.03,8.4,7.23,2.92.95,5.87,1.64,8.88,1.65ZM66.43,55.43c1.94-.46,3.04-2.41,2.64-4.22-.3-1.34-1.53-2.16-2.88-2.31-1.57-.17-3.08.3-4.52.99,1.15-.02,2.06-.3,3.1-.08.84.18,1.67.48,2.27,1.12,1.3,1.4.8,3.4-.61,4.51ZM58.96,52.62c2.06-.69,4.16-1.3,6.2-1.15-1.73-1.64-4.66-.34-6.79.54l-3.78,1.75c1.56-.15,2.86-.75,4.37-1.14ZM66.95,59.77c-2.12,2.69-3.95,5.24-6.46,7.39-4.16,3.81-9.18,6.48-14.68,7.79-9.04,2.08-18.45.17-26.02-5.15-4.05-2.85-7.27-6.47-10.08-10.67.67,1.69,1.82,3.07,2.89,4.56,10.72,13.13,29,16.62,43.5,7.4,4.44-2.86,8.36-6.69,10.85-11.33ZM28.94,65.43l3.4.12c.36.01.67.41,1.18.23.19-.06.41.16.39.31-.03.21-.15.29-.41.3l-2.88.12c-.17,0-.3.1-.29.23,0,.1.13.18.29.18l2.27.12c-.35.44-.39.91-.23,1.39.41.07.76.07,1.19,0,.06-.87.74-1.49,1.55-1.51s1.47.63,1.53,1.53l2.67-.03.82-6.43c.03-.21-.2-.41-.4-.41l-6.87.03c-.23.13-.29.8-.09.91l1.61.09c.21.01.36.2.31.35-.04.11-.27.23-.43.22-.73-.05-1.39.05-2.1.06l-2.47.06c-.15,0-.25.09-.25.18,0,.11.08.2.25.2l2.6.09c.09.14.15.35.25.39.47.18,1.51-.27,1.62.31.02.27-.7.3-.93.23-.45-.15-.79.21-1.1.22l-3.48.12c-.14,0-.18.06-.21.14-.02.06.06.25.2.25ZM44.74,68.37c.18-.23-.03-.58-.02-.78l.05-1.77-1.44-2.66-2.5.04-.67,5.19c.14.13.56.13.65,0,.13-.8.79-1.44,1.62-1.4.72.03,1.46.63,1.36,1.49.25,0,.71.13.95-.09ZM36.52,68.55c0-.63-.51-1.15-1.15-1.15s-1.15.51-1.15,1.15.51,1.15,1.15,1.15,1.15-.51,1.15-1.15ZM41.19,68.72c.17.77.9,1.1,1.35.98.75-.2.99-.88.88-1.41-.15-.71-.86-1.07-1.52-.77-.39.18-.81.78-.71,1.2Z"/>
    <path class="st0" d="M20.69,49.03l-.4.04-.11-.14c-.06-.08-.16-.12-.27-.13.07-.21-.19-.31-.23-.43-.16-.41-.37-.97-.65-1.41-.75-1.2-1.3-2.46-2.22-3.55-.31-.37-.84-.49-1.2-.73l.03-.19.42.06.13-.12c-.8-1.28-1.7-2.53-2.35-3.9l.19-.04c.94,1.45,1.97,2.83,3.11,4.32l-.02-1.65c0-.09-.1-.2-.08-.25.02-.06.12-.1.19-.07.12.05.07.19.08.25l.39,2.49,1.8,3.08c.18-.53-.04-.92.3-1.28-.11,1.12-.05,2.07.65,2.89.18.22.33.53.24.76ZM16.24,42.46l-.12.16c.14.16.32-.06.12-.16Z"/>
    <path class="st0" d="M100.29,37.01c-.65.51-1.47.44-2.15.36v-3.59c.7-.06,1.45-.19,2.07.21.97.63,1.02,2.28.08,3.02Z"/>
    <path class="st0" d="M92.67,35.38c.9,1.99.39,4.82-1.53,5.49-.77.27-1.58.3-2.39.11l-.03-7.2c1.77-.24,3.24.02,3.95,1.6Z"/>
    <path class="st0" d="M118.41,35.36c.88,1.82.45,4.57-1.26,5.39-.82.39-1.76.45-2.65.21v-7.05c.01-.24.71-.26.88-.18,1.34-.15,2.45.46,3.03,1.62Z"/>
    <path class="st0" d="M128.74,35.23c1.09,2.45.25,5.97-2.22,6.09-.89.04-1.79-.41-2.29-1.24-.92-1.53-.97-3.47-.18-5.07.47-.96,1.39-1.46,2.38-1.44s1.87.66,2.32,1.66Z"/>
    <path class="st1" d="M14.3,50.52l-.71-1.26c-.18-.32-.32-.76-.51-.96l-.09.07c.14.79.89,1.47.91,2.19-1.31-.79-2.6-1.61-3.82-2.53l-.14.08c1.37,1.29,2.92,2.36,4.53,3.4-.68.16-1.28.02-1.86.06.77.47,1.71.13,2.5.31,3.96,1.97,6.85,2.02,11.09,1.94.69-.01,1.34.17,1.97.3-2.56.14-4.97.4-7.46.83-1.56.26-3.05.39-4.62.28-3.04-.2-5.75-1.71-7.55-4.2s-2.8-5.06-3.33-8.04c1.46,1.13,2.98,1.63,4.7,1.84,3.15.4,5.98,1.57,8.34,3.68,1.05.94,2.04,1.86,3.16,2.71s2.4,1.4,3.66,1.99c-2.5.13-4.87-.06-7.18-.82-1.14-.38-3.22-1.25-3.58-1.89ZM9.42,47.5c-.08,0-.1.1-.02.13l.02-.13ZM9.53,47.63l-.07.06s.05.05.06.07l.07-.07-.06-.06ZM9.65,47.88l.07-.07c-.07-.1-.18,0-.07.07ZM9.98,47.94c-.14-.18-.33.05-.1.14l.1-.14ZM12.87,48.23c.07.1.18,0,.07-.07l-.07.07Z"/>
    <path class="st1" d="M58.16,13.26c-6.18-4.65-13.7-6.98-21.37-6.48-9.64.63-18.58,5.4-24.45,13.05-3.23,4.21-5.32,9.05-6.44,14.21-.41,1.9-.52,3.68-.9,5.56.08-9.17,4.1-18.06,10.79-24.26,4.61-4.28,10.24-7.16,16.37-8.44,8.18-1.7,16.59-.2,23.68,4.21,9.66,6,15.98,16.72,16.2,28.15-.66-4.14-1.35-8.05-2.97-11.88-2.36-5.57-6.02-10.43-10.91-14.11Z"/>
    <path class="st1" d="M66.95,59.77c-2.49,4.64-6.41,8.47-10.85,11.33-14.51,9.21-32.78,5.73-43.5-7.4-1.07-1.49-2.22-2.87-2.89-4.56,2.8,4.2,6.02,7.82,10.08,10.67,7.57,5.32,16.98,7.23,26.02,5.15,5.5-1.31,10.52-3.98,14.68-7.79,2.52-2.16,4.35-4.7,6.46-7.39Z"/>
    <path class="st1" d="M41.06,54.68c-.03.12-.03.25.01.35-3.01,0-5.96-.7-8.88-1.65-3.7-1.2-7.15-3.58-8.4-7.23l-.05-.05c-.11-.1,0-.18.07-.14l.1.12c.99.78,2.15,1.39,3.37,1.9,2.03.85,3.82,1.87,5.63,3.12,2.51,1.74,5.23,3,8.16,3.58Z"/>
    <path class="st1" d="M63.77,47.85c-3.08.86-6.7,3.5-10.41,4.98-1.56.63-3.1,1.18-4.79,1.25.91-.4,1.78-.45,2.6-.93,1.97-.77,3.7-1.87,5.46-3.02,3.43-2.24,9-6.37,12.25-3.25.94.9,1.52,2.19,1.38,3.64-.02.24.12.54-.15.77.04-1.47-.88-2.78-2.31-3.36-1.3-.52-2.68-.45-4.04-.07Z"/>
    <path class="st1" d="M66.43,55.43c1.41-1.11,1.91-3.11.61-4.51-.6-.64-1.43-.94-2.27-1.12-1.04-.22-1.95.06-3.1.08,1.44-.69,2.95-1.16,4.52-.99,1.35.15,2.58.97,2.88,2.31.4,1.81-.7,3.76-2.64,4.22Z"/>
    <path class="st2" d="M29.36,21.29c-.85.26-.83,1.64-1.15,2.88-.3-.83-.21-1.95-.84-2.64-.56-.61-1.61-.56-2.36-.85.71-.24,1.84-.15,2.42-.77s.42-1.68.76-2.45c.32.74.17,1.85.78,2.45s1.62.56,2.33.77l-1.93.6Z"/>
    <path class="st1" d="M58.96,52.62c-1.51.4-2.8,1-4.37,1.14l3.78-1.75c2.14-.88,5.06-2.18,6.79-.54-2.04-.15-4.15.47-6.2,1.15Z"/>
    <path class="st2" d="M22.11,28.74c-.22-.38-.11-.88-.36-1.21-.31-.42-.84-.41-1.36-.55l1.17-.4c.41-.31.36-.85.54-1.34.24.46.14.88.4,1.19.28.34.72.35,1.25.53-.45.19-.97.13-1.27.54-.23.32-.11.81-.38,1.24Z"/>
    <path class="st2" d="M68.47,41.84c-.39.34-.97.26-1.28-.13-.26-.33-.37-.86.05-1.23.37-.32.96-.25,1.25.15.23.31.37.87-.02,1.21Z"/>
    <path class="st2" d="M36.25,18.52c-.95.26-1.08.42-1.32,1.51-.23-1.09-.35-1.24-1.45-1.55.4-.12.83-.13,1.08-.4.27-.3.23-.7.37-1.17l.29,1.06c.1.37.48.35,1.03.55Z"/>
    <circle class="st2" cx="66.29" cy="34.48" r=".75"/>
    <path class="st2" d="M14.3,50.52c-.16.13-.27.12-.4.04-.01-.72-.77-1.4-.91-2.19,0-.02-.02-.07-.12-.14.07.1.18,0,.07-.07l.13.14c.2.2.33.64.51.96l.71,1.26Z"/>
    <path class="st2" d="M41.08,55.03c-.04-.1-.04-.24-.01-.35,1.05.21,1.85.09,2.51.36h-2.5Z"/>
    <path class="st2" d="M20.69,49.03c.15-.02.29-.01.4.11.11.13.18.27.06.42-.2-.17-.3-.19-.42-.24-.06-.03-.19-.02-.22.11-.13-.12-.2-.18-.22-.35l.4-.04Z"/>
    <path class="st2" d="M19.91,48.81c-.18-.08-.23-.14-.32-.21l.09-.22c.05.12.3.22.23.43Z"/>
    <path class="st2" d="M20.29,49.07c-.03-.06-.11-.13-.11-.14l.11.14Z"/>
    <path class="st2" d="M20.18,48.93l-.27-.13c.11.01.21.05.27.13Z"/>
    <path class="st1" d="M20.51,49.43c.03-.13.15-.14.22-.11.12.05.22.07.42.24.12-.15.05-.3-.06-.42-.11-.12-.25-.12-.4-.11.09-.23-.05-.54-.24-.76-.7-.83-.76-1.77-.65-2.89-.35.37-.12.75-.3,1.28l-1.8-3.08-.39-2.49c0-.06.05-.2-.08-.25-.08-.03-.17.01-.19.07-.02.05.08.16.08.25l.02,1.65c-1.14-1.49-2.17-2.86-3.11-4.32-.25-.39-.38-.86-.76-1.22.02.56.38.88.57,1.26.65,1.37,1.55,2.62,2.35,3.9,0,.02.03.04.06.03.2.09.02.31-.12.16l-.06-.06-.42-.06c-.28-.25-.63-.44-1.01-.48l-.06.08c.26.26.73.37,1.04.59.36.24.89.37,1.2.73.91,1.09,1.47,2.35,2.22,3.55.28.44.49,1,.65,1.41l-.09.22c-2.09-1.67-3.98-3.12-6.58-3.96-3.89-4.29-3.89-10.66-1.83-16.04.58,2.1,1.59,3.9,3.15,5.3.9.81,1.85,1.43,2.82,2.16,3.27,2.38,4.33,5.23,4.99,9.1.37,2.16,1.24,4.13,2.78,5.71,1.36,1.39,3.03,2.13,4.83,2.82-3.61-.23-6.75-1.86-9.24-4.25ZM13.19,37.06l-.07.07.07.07.07-.07-.07-.07ZM14.12,41.82h-.09s.09,0,.09,0h.17s-.09,0-.09,0h-.09ZM14.44,41.96c.07.11.18,0,.07-.07l-.07.07Z"/>
    <path class="st2" d="M14.03,38.49l-.19.04c-.18-.39-.54-.7-.57-1.26.39.36.51.83.76,1.22Z"/>
    <path class="st2" d="M15.64,42.49l-.03.19c-.32-.22-.79-.33-1.04-.59l-.13-.13c.07.11.18,0,.07-.07l.12.12c.38.04.73.23,1.01.48Z"/>
    <polygon class="st2" points="14.12 41.82 14.21 41.82 14.3 41.82 14.21 41.82 14.12 41.82 14.04 41.82 14.12 41.82"/>
    <rect class="st2" x="13.14" y="37.08" width=".09" height=".09" transform="translate(-22.39 20.21) rotate(-45.02)"/>
    <path class="st0" d="M40.33,28.18c.39-.11.57-.45.79-.72,2.26-1.11,4.56-2.1,7.14-2.2,2.09-.09,4.07.26,5.82,1.34-2.69.49-5.54,1.6-7.49,3.3-.15.22-.37.32-.6.3-.11,0-1.78-1.58-5.57-1.86-.08,0-.13-.11-.09-.15Z"/>
    <path class="st0" d="M41.25,32.95c-.59.37-1.12.8-1.5,1.44l-.1.16c-.53.23-.59.8-.87,1.13-.84.96-1.49,1.96-1.88,3.22-1.04,3.35-.91,7.67,1.34,10.66-1.72-.42-3.38-1.07-4.91-2.01-1.39-.85-2.13-2.22-2.58-3.74-.84-2.86-.61-5.88.91-8.44.38-.64.99-.88,1.73-.95,1.71-.15,3.11.65,4.77,1.22-1.55-1.21-3.51-1.57-5.53-1.44.43-1.43,2.04-2.51,2.21-2.98.05-.09.23-.13.21-.26,1.33-.79,2.58-1.64,4.08-2.11,1.87-.59,5.06.2,6.56,1.51-1.57.42-2.81,1.29-4.08,2.14-.24.16-.27.37-.35.46Z"/>
    <path class="st0" d="M39.65,34.54s.06-.04.1-.16l1.5-1.44c1.42-.88,2.73-1.94,4.45-2.38,1.01-.26,1.99,0,2.97.21-.49-.49-1.15-.39-1.73-.65.03-.32.26-.51.52-.69,1.95-1.32,4.18-2.2,6.53-2.52,2.09-.28,4.7.42,6,2.06s.85,3.94-.68,5.24c-.58.5-.95.89-1.67,1.16-.66.25-1.26.89-2.11.86.47-.68,1.09-1.28,1.03-2.09-.61,1.32-1.37,2.41-2.72,2.91-.12.04-.43-.14-.49-.06l-.23.34c-.45.4-1,.63-1.63.66.92-1.66.99-3.75-.24-5.12.54,1.47.99,2.73.44,4.04-.45,1.07-1.21,1.94-2.38,2.07.07-.17.25-.29.21-.54-.5.59-1.09,1.09-2.01,1.11.39-1.03.86-1.86.71-2.93-.4,1.79-.69,3-2.61,3.83-.01-.6,0-1.11-.16-1.66-.15-.1-.28.06-.23.2.44,1.08,0,2.16-1.06,2.58-.55.22-1.1.13-1.65.22.68.19,1.28.01,2,.04.24,1.64-.58,3.09-2.04,3.82.83.09,1.38-.51,1.81-1.2.67,1.18.28,2.64-.26,4.01.75-.69.79-1.64,1-2.6,1.01.78,1.39,2.05,1.3,3.32.07.94-.3,1.87-1.2,2.28-2.77-.05-6.33-.86-7.49-3.43-1.47-3.24-1.45-7.02-.03-10.26.31-.71.71-1.4,1.46-1.59,1.77-.45,3.38.25,4.96.95-1.42-1.21-3.28-1.42-5.05-1.31l.7-1.3ZM56.68,33.67v.09s0,.09,0,.09v.09s0-.09,0-.09v-.17ZM44.15,37.19l-.07.07.07.07.07-.07-.07-.07ZM45.19,38.49l-.07.07.07.07.07-.07-.07-.07Z"/>
    <path class="st0" d="M41.12,27.46c-.27.25-.74.24-.79.72-1.95.53-3.79,1.44-5.28,2.76-.06.06-.19.19-.21.26-1.09.71-1.94,1.74-2.52,3-1.55-1.15-3.4-1.69-5.3-1.46-.66-.44-1.35-.45-2.21-.35.41-.86,1.05-1.38,1.75-1.91,1.81-1.36,3.85-2.3,6-3.03,1.44-.49,2.78-.36,4.3-.09-.84-.63-1.77-.3-2.78-.54,2.62-1.6,5.58-2.62,8.7-2.7l2.2.17c.79.06,1.5.38,2.29.7-2.16.48-4.34,1.15-6.14,2.45Z"/>
    <path class="st0" d="M48.82,41.03c-.28-.38-.71-.52-1.27-.77,1.04-.65,2.77-.96,2.73-.89l.12-.27c.86-.53,1.7-.86,2.72-.56-.06-.27-.23-.25-.41-.37l1.52-.78c.51-.26,1.04-.17,1.63-.07-.07-.25-.31-.27-.45-.34.42-.4.89-.41,1.31-.63.56-.29,1.09-.4,1.72-.18,0-.29-.17-.32-.42-.36l1.6-1.27c1.49.32,2.74,1.03,3.64,2.29,1.93,2.69.96,6.59-2.11,8.13-.05-.51.12-.99-.2-1.42.15,1.03-.26,1.85-1.1,2.34-.62.37-1.18.82-1.91.95.38-.96.4-2.11-.17-2.88l-.11.08c.22.45.28.95.3,1.49.05,1.28-.85,2.21-2.08,2.41-1.17,1.04-3,1.85-4.67,2.28.12-.37.41-.72.15-1.12-.13.69-.42,1.27-1.06,1.49-1.43.5-2.86.78-4.44.85.99-1.55.89-3.39.27-4.88,0-.02-.03-.1-.17-.11.07.03-.03-.27.22-.07,0,0,.03.04.07.05.58-.07,1.08.22,1.54.56l.1-.1c-.07-.11-.18-.19-.12-.4,1.05-.08,1.35-.74,2.55-.04-.03-.31-.3-.38-.52-.58l3.79-1.81c.54-.26.92-.55,1.59-.16-.06-.28-.2-.28-.42-.39.88-.64,1.36-.78,2.35-.32-.1-.28-.36-.34-.57-.52.51-.51,1.12-.58,1.69-.88s1.02-.39,1.67.02c-.06-.36-.31-.37-.45-.54.87-.73,1.87-.75,2.91-.45-.34-.32-.71-.36-1.29-.53.62-.73,1.07-1.48.81-2.36-.15,1.1-.57,2.05-1.67,2.44l-.15-.78c-.49,1.26-1.47,1.76-2.81,2.11.19-.24.41-.52.21-.92-.32,1.16-1.43,1.81-2.67,2.02.26-.64.43-1.36.07-2.02l-.09,1.46c-.05.75-.76,1.21-1.41,1.48l-1.34.55c.23-.48.37-.87.2-1.37-.15,1.34-.86,2.02-2.32,2.29.28-.91.6-1.91-.05-2.69.1,1.01.31,2.09-.46,2.86-.91.93-2.35.92-3.46.43-.72-.32-1.11-.74-1.14-1.56-.01-.29-.16-.85.2-1.1.39-.14,1.05.04,1.49.34-.42.26-.61.61-.5,1.03.12-.33.24-.57.38-.7.25-.23.67-.22.84.07.04.06-.07.26-.05.32s.21.05.42.02c-.1-.37-.21-.7-.13-1.24l-.35.35c-.42-.21-.63-.56-.72-.96-.12.21-.09.34-.14.56-.33.02-1.12-.13-1.22-.53-.25-1.03,1.31-2,1.93-1.96s1.27.36,1.74.64l.13-.07ZM58.64,36.14l-.07.07.07.07.07-.07-.07-.07ZM58.91,36.27l-.07.07.07.07.07-.07-.07-.07ZM48.87,41.05l-.11.12.19.1.09-.11-.17-.12ZM49.11,41.23l-.1.09.08.08.09-.1-.07-.07ZM49.27,41.39l-.13.06c.08.13.19.02.13-.06ZM60.02,41.84c.07.1.18,0,.07-.07l-.07.07ZM60.21,41.89l-.07.13c0,.14.13.16.2.13.07-.04.1-.12.07-.2s-.12-.1-.2-.07ZM60.47,42.28l-.07.07.07.07.07-.07-.07-.07ZM57.7,43.88c-.09-.14-.24,0-.12.11l.12-.11ZM47.95,46.95l-.09.1c0,.08.08.11.09.15.05.12.18.09.18-.02s-.11-.21-.18-.23Z"/>
    <path class="st0" d="M27,44.79c-3.55-1.03-5.16-4.41-4.45-8.07.24-1.23.63-2.35,1.42-3.32,1.09-1.33,2.93-.64,2.96-.45,0,.08-.07.17-.08.33,1.45-.81,3.87.04,5.3,1.12-2.92,3.19-2.68,8.8-.27,12.31-.93-.07-1.63-.5-2.4-.8-2.52-.97-3.58-3.52-3.91-6.16l-.12-2.99c-.59,2.81.21,5.59,1.69,7.88,0,0,0,.14.2.19-.26-.26-.2.08-.22.02l-.12-.06Z"/>
    <rect class="st0" x="47.36" y="39.56" width=".09" height=".09" transform="translate(-14.11 45.15) rotate(-45.02)"/>
    <path class="st0" d="M9.4,47.63c-.08-.03-.06-.13.02-.13l.11.13.06.06.12.12c-.07-.1-.18,0-.07.07l-.12-.12s-.05-.04-.06-.07-.04-.05-.07-.06Z"/>
    <path class="st2" d="M39.65,34.54l.1-.16c-.04.12-.11.18-.1.16Z"/>
    <path class="st2" d="M41.25,32.95l-1.5,1.44c.38-.63.91-1.07,1.5-1.44Z"/>
    <path class="st2" d="M35.04,30.94c.01.13-.16.17-.21.26.03-.07.15-.21.21-.26Z"/>
    <path class="st2" d="M41.12,27.46c-.22.27-.4.61-.79.72.05-.48.52-.47.79-.72Z"/>
    <path class="st2" d="M43.46,51.85c-1.76-.3-3.22-.8-4.68-1.65l-1.87-.5-2.96-1.23-1.57-.99c-1.61-.54-3.18-1-4.56-2.02-2.69-.57-4.72-2.11-5.5-4.79-.62-2.14-.32-4.34.56-6.35.3-.68.82-1.11,1.22-1.69.51-.75.86-1.58,1.68-2.13l2.33-1.55c1.69-.9,3.34-1.69,5.25-2.05,2.31-1.81,5.44-2.72,8.35-3.12,2.09-.06,4.19-.06,5.88,1.09,2.6-.25,5.13.35,7.33,1.7,1.71-.07,3.31.48,4.6,1.58,1.43,1.21,1.89,3.07,1.2,4.82l-.87,1.22c.92.41,1.85.62,2.59,1.23,1.75,1.45,2.47,3.71,1.98,5.95-.42,1.95-1.84,3.46-3.63,4.3-.94.81-1.97,1.43-3.16,1.78-.51.58-1.2.82-1.84,1.2-1.61.96-3.25,1.8-5.11,2.16-.64.42-1.33.52-2.05.74-1.69.3-3.42.47-5.17.31ZM34.83,31.21c-.17.47-1.79,1.55-2.21,2.98,2.03-.13,3.98.23,5.53,1.44-1.66-.57-3.06-1.37-4.77-1.22-.74.06-1.35.31-1.73.95-1.52,2.56-1.75,5.58-.91,8.44.45,1.53,1.19,2.89,2.58,3.74,1.54.94,3.19,1.58,4.91,2.01-2.25-2.99-2.38-7.31-1.34-10.66.39-1.26,1.03-2.26,1.88-3.22.29-.33.35-.9.87-1.13l-.7,1.3c1.77-.11,3.63.1,5.05,1.31-1.58-.7-3.19-1.4-4.96-.95-.74.19-1.15.88-1.46,1.59-1.42,3.25-1.44,7.02.03,10.26,1.17,2.57,4.73,3.38,7.49,3.43.9-.41,1.27-1.34,1.2-2.28.09-1.27-.29-2.54-1.3-3.32-.21.96-.24,1.91-1,2.6.54-1.37.93-2.83.26-4.01-.43.7-.98,1.29-1.81,1.2,1.46-.73,2.28-2.18,2.04-3.82-.72-.03-1.32.15-2-.04.55-.09,1.1,0,1.65-.22,1.07-.42,1.5-1.5,1.06-2.58-.05-.15.07-.3.23-.2.15.55.15,1.06.16,1.66,1.92-.84,2.21-2.04,2.61-3.83.16,1.07-.32,1.9-.71,2.93.92-.02,1.51-.52,2.01-1.11.04.24-.13.36-.21.54,1.17-.13,1.93-1,2.38-2.07.55-1.31.1-2.58-.44-4.04,1.23,1.37,1.16,3.46.24,5.12.63-.03,1.18-.27,1.63-.66l.23-.34c.06-.08.37.11.49.06,1.34-.5,2.1-1.59,2.72-2.91.06.81-.56,1.42-1.03,2.09.85.03,1.45-.61,2.11-.86.72-.27,1.08-.66,1.67-1.16,1.53-1.3,1.99-3.59.68-5.24s-3.91-2.34-6-2.06c-2.35.31-4.58,1.2-6.53,2.52-.26.17-.5.36-.52.69.58.26,1.24.15,1.73.65-.98-.21-1.96-.47-2.97-.21-1.71.43-3.03,1.5-4.45,2.38.08-.09.11-.3.35-.46,1.27-.85,2.51-1.72,4.08-2.14-1.5-1.32-4.7-2.1-6.56-1.51-1.49.47-2.75,1.33-4.08,2.11,1.5-1.32,3.34-2.23,5.28-2.76-.04.04,0,.15.09.15,3.79.28,5.46,1.85,5.57,1.86.23.02.45-.07.6-.3,1.95-1.7,4.8-2.81,7.49-3.3-1.75-1.09-3.74-1.43-5.82-1.34-2.58.11-4.88,1.1-7.14,2.2,1.8-1.3,3.98-1.97,6.14-2.45-.79-.32-1.5-.64-2.29-.7l-2.2-.17c-3.12.07-6.08,1.09-8.7,2.7,1.01.24,1.94-.09,2.78.54-1.52-.27-2.86-.39-4.3.09-2.15.73-4.19,1.67-6,3.03-.7.53-1.34,1.05-1.75,1.91.87-.1,1.55-.09,2.21.35,1.9-.22,3.75.31,5.3,1.46.58-1.26,1.43-2.29,2.52-3ZM27.14,44.65c-1.47-2.29-2.28-5.07-1.69-7.88l.12,2.99c.32,2.64,1.39,5.18,3.91,6.16.77.3,1.48.73,2.4.8-2.41-3.51-2.66-9.12.27-12.31-1.43-1.08-3.85-1.93-5.3-1.12.01-.16.09-.25.08-.33-.02-.2-1.86-.89-2.96.45-.79.96-1.18,2.08-1.42,3.32-.71,3.66.91,7.04,4.45,8.07l.13-.14ZM57.77,43.97c.56.77.55,1.92.17,2.88.73-.13,1.29-.58,1.91-.95.83-.5,1.25-1.31,1.1-2.34.33.43.15.91.2,1.42,3.07-1.55,4.05-5.45,2.11-8.13-.9-1.25-2.15-1.97-3.64-2.29l-1.6,1.27c.25.04.43.08.42.36-.64-.22-1.16-.11-1.72.18-.42.21-.89.22-1.31.63.14.07.37.1.45.34-.6-.11-1.13-.19-1.63.07l-1.52.78c.17.12.35.1.41.37-1.02-.3-1.86.03-2.72.56l-.12.27c.03-.08-1.69.24-2.73.89.56.25,1,.39,1.27.77l.06.02.17.12.06.06.07.07.09.1c.06.09-.04.2-.13.06l-.05-.06-.08-.08s-.03-.03-.05-.04l-.19-.1-.08-.08c-.47-.28-1.11-.6-1.74-.64s-2.18.93-1.93,1.96c.1.4.88.55,1.22.53.05-.22.01-.35.14-.56.09.4.29.74.72.96l.35-.35c-.08.53.03.87.13,1.24-.21.03-.4.04-.42-.02s.08-.26.05-.32c-.17-.29-.59-.3-.84-.07-.14.13-.26.36-.38.7-.12-.42.08-.77.5-1.03-.44-.29-1.1-.48-1.49-.34-.35.25-.21.82-.2,1.1.04.81.42,1.24,1.14,1.56,1.12.49,2.55.49,3.46-.43.76-.78.55-1.86.46-2.86.65.78.34,1.78.05,2.69,1.46-.27,2.17-.94,2.32-2.29.17.5.03.89-.2,1.37l1.34-.55c.65-.27,1.36-.73,1.41-1.48l.09-1.46c.36.66.18,1.38-.07,2.02,1.24-.21,2.35-.87,2.67-2.02.2.4-.02.68-.21.92,1.34-.35,2.32-.85,2.81-2.11l.15.78c1.1-.39,1.52-1.34,1.67-2.44.26.88-.19,1.62-.81,2.36.59.18.96.21,1.29.53-1.04-.3-2.04-.28-2.91.45.14.17.39.18.45.54-.65-.42-1.12-.31-1.67-.02s-1.18.38-1.69.88c.2.18.47.24.57.52-.99-.46-1.47-.32-2.35.32.21.11.35.11.42.39-.67-.4-1.05-.1-1.59.16l-3.79,1.81c.22.2.49.26.52.58-1.21-.7-1.5-.04-2.55.04-.06.21.05.3.12.4.01.02.03.04.05.05.07.01.18.11.18.23s-.12.14-.18.02c-.02-.04-.09-.07-.09-.15,0-.02-.05-.04-.06-.05-.45-.34-.96-.64-1.54-.56l-.12.13c.62,1.49.71,3.33-.27,4.88,1.58-.07,3.02-.35,4.44-.85.64-.22.93-.8,1.06-1.49.26.41-.03.76-.15,1.12,1.67-.43,3.49-1.24,4.67-2.28,1.22-.2,2.13-1.13,2.08-2.41-.02-.54-.08-1.04-.3-1.49-.01-.03-.05-.05-.07-.06-.13-.1.03-.25.12-.11,0,.04.05.07.06.09ZM47.41,39.54l-.07.07.07.07.07-.07-.07-.07ZM27.12,44.85l.22-.02c-.26-.26-.2.08-.22.02ZM46.19,46.38c-.25-.19-.15.11-.22.07l.22-.07Z"/>
    <polygon class="st2" points="56.68 33.67 56.69 33.75 56.69 33.84 56.68 33.92 56.68 33.84 56.68 33.75 56.68 33.67"/>
    <rect class="st2" x="45.14" y="38.51" width=".09" height=".09" transform="translate(-14.03 43.27) rotate(-45.02)"/>
    <rect class="st2" x="44.1" y="37.21" width=".09" height=".09" transform="translate(-13.41 42.15) rotate(-45.02)"/>
    <path class="st2" d="M60.02,41.84c.07.1.18,0,.07-.07l.12.12c.07-.04.16,0,.2.07s0,.15-.07.2c-.06.04-.2.01-.2-.13,0-.08-.02-.13-.12-.18Z"/>
    <rect class="st2" x="60.43" y="42.3" width=".09" height=".09" transform="translate(-12.22 55.19) rotate(-45.02)"/>
    <rect class="st2" x="58.6" y="36.16" width=".09" height=".09" transform="translate(-8.42 52.1) rotate(-45.02)"/>
    <rect class="st2" x="58.86" y="36.29" width=".09" height=".09" transform="translate(-8.44 52.32) rotate(-45.02)"/>
    <g>
      <path class="st1" d="M28.94,65.43c-.15,0-.22-.19-.2-.25.02-.07.06-.13.21-.14l3.48-.12c.31-.01.65-.37,1.1-.22.23.08.95.04.93-.23-.12-.58-1.15-.13-1.62-.31-.1-.04-.16-.25-.25-.39l-2.6-.09c-.17,0-.25-.09-.25-.2,0-.1.1-.18.25-.18l2.47-.06c.71-.02,1.37-.11,2.1-.06.17.01.4-.1.43-.22.05-.14-.1-.33-.31-.35l-1.61-.09c-.2-.12-.14-.79.09-.91l6.87-.03c.19,0,.42.2.4.41l-.82,6.43-2.67.03c-.07-.89-.71-1.54-1.53-1.53s-1.49.63-1.55,1.51c-.43.07-.78.06-1.19,0-.16-.48-.12-.95.23-1.39l-2.27-.12c-.16,0-.28-.08-.29-.18,0-.14.12-.23.29-.23l2.88-.12c.26-.01.39-.08.41-.3.02-.15-.21-.38-.39-.31-.51.17-.82-.22-1.18-.23l-3.4-.12Z"/>
      <path class="st1" d="M44.74,68.37c-.25.22-.7.09-.95.09.1-.86-.64-1.46-1.36-1.49-.83-.04-1.49.6-1.62,1.4-.09.14-.51.13-.65,0l.67-5.19,2.5-.04,1.44,2.66-.05,1.77c0,.2.2.56.02.78ZM44.11,65.6l-1.08-1.9h-1.69s-.22,1.89-.22,1.89h2.99Z"/>
      <path class="st1" d="M41.19,68.72c-.09-.42.32-1.02.71-1.2.66-.3,1.37.06,1.52.77.11.53-.14,1.21-.88,1.41-.44.12-1.17-.21-1.35-.98ZM42.87,68.55c0-.3-.24-.54-.54-.54s-.54.24-.54.54.24.54.54.54.54-.24.54-.54Z"/>
      <path class="st1" d="M36.52,68.55c0,.63-.51,1.15-1.15,1.15s-1.15-.51-1.15-1.15.51-1.15,1.15-1.15,1.15.51,1.15,1.15ZM35.92,68.53c0-.3-.25-.55-.55-.55s-.55.25-.55.55.25.55.55.55.55-.25.55-.55Z"/>
      <polygon class="st0" points="44.11 65.6 41.12 65.59 41.34 63.7 43.03 63.7 44.11 65.6"/>
      <circle class="st0" cx="42.34" cy="68.55" r=".54"/>
      <circle class="st0" cx="35.37" cy="68.53" r=".55"/>
    </g>
  </g>
</svg>